PathFileType	4	(X/Y/Z)	./resultDataOpenSim/trcMotMarkerGrf/sub10/qtm-14-08.trc
DataRate	CameraRate	NumFrames	NumMarkers	Units	OrigDataRate	OrigDataStartFrame	OrigNumFrames
250.000000	250.000000	9	24	m	250.000000	444	507
Frame#	Time	L.Toe.Tip			R.Toe.Tip			L.Ankle.Lat			R.Ankle.Lat			L.Ankle.Med			R.Ankle.Med			L.Heel			R.Heel			L.Knee.Lat			R.Knee.Lat			L.Knee.Med			R.Knee.Med			L.Thigh.Upper			R.Thigh.Upper			L.ASIS			R.ASIS			V.Sacral			L.Acromium			R.Acromium			C7			L.Elbow			R.Elbow			L.Wrist.Lat			R.Wrist.Lat
		X1	Y1	Z1	X2	Y2	Z2	X3	Y3	Z3	X4	Y4	Z4	X5	Y5	Z5	X6	Y6	Z6	X7	Y7	Z7	X8	Y8	Z8	X9	Y9	Z9	X10	Y10	Z10	X11	Y11	Z11	X12	Y12	Z12	X13	Y13	Z13	X14	Y14	Z14	X15	Y15	Z15	X16	Y16	Z16	X17	Y17	Z17	X18	Y18	Z18	X19	Y19	Z19	X20	Y20	Z20	X21	Y21	Z21	X22	Y22	Z22	X23	Y23	Z23	X24	Y24	Z24

444	1.772	1.6755994	0.08197149	-0.11220092	0.92767373	0.038234364	-0.0098737655	1.5424876	0.067584982	-0.1398772	0.81434483	0.11545991	0.035567453	1.5477953	0.093650611	-0.058787773	0.84773191	0.13279486	-0.045528566	1.4894251	0.022732364	-0.094965811	0.76029367	0.12163549	-0.011013925	1.4417201	0.44585885	-0.16973703	1.0718156	0.42369554	0.079207373	1.4510901	0.42312331	-0.050322487	1.1044855	0.42148245	-0.045020475	1.3067203	0.80504822	-0.22708832	1.1637594	0.82144987	0.13504269	1.3321886	0.91624086	-0.14064598	1.2567608	0.9111285	0.09835683	1.1051972	0.91537163	-0.095734985	1.1963068	1.3826999	-0.19579018	1.18271	1.3725407	0.12868909	1.1050658	1.3988188	-0.040874457	1.0390833	1.0850976	-0.26952426	1.2295861	1.0135119	0.17225467	1.0927613	0.85393909	-0.31147662	1.4710123	0.95334752	0.15268935
445	1.776	1.6789054	0.076861718	-0.11190362	0.92823393	0.038152024	-0.0099604262	1.545047	0.067432793	-0.13951405	0.81710854	0.11861407	0.035387257	1.5510927	0.093058473	-0.05824802	0.85151844	0.13495997	-0.045454761	1.4905064	0.024066192	-0.094756077	0.76376691	0.12586025	-0.011694097	1.4481419	0.44559288	-0.16966252	1.0785764	0.42323383	0.079273096	1.4579679	0.42289342	-0.050295126	1.1119745	0.42039016	-0.044642113	1.314245	0.80498441	-0.22738074	1.1701292	0.82052217	0.13450598	1.3386408	0.91621414	-0.14071662	1.2632603	0.91060864	0.097951588	1.1118073	0.91499928	-0.096066098	1.201984	1.3822194	-0.19647496	1.1886272	1.3721921	0.12804061	1.1107725	1.3981781	-0.041537143	1.0448579	1.0844576	-0.2696998	1.2361096	1.0128751	0.17019314	1.0982746	0.85337776	-0.31215363	1.4772361	0.95373673	0.15041704
446	1.78	1.6820966	0.072816012	-0.11157565	0.92883706	0.038081719	-0.010117552	1.547702	0.067316338	-0.13925593	0.82011687	0.12190374	0.035171785	1.5542754	0.092552598	-0.057820915	0.85561745	0.1371099	-0.045372029	1.4917018	0.02535127	-0.094697402	0.76757689	0.13023478	-0.012435706	1.4546405	0.4456241	-0.16967535	1.0856151	0.42272173	0.07933842	1.464815	0.42286787	-0.050321454	1.1197684	0.4191636	-0.044229065	1.32183	0.80508795	-0.22769246	1.1761702	0.81965606	0.13391365	1.3449894	0.91621014	-0.14087574	1.2698082	0.91005937	0.09747988	1.1183623	0.91464523	-0.096350941	1.2076943	1.3817634	-0.19717821	1.1945783	1.3718869	0.12741855	1.1164741	1.3975925	-0.042198258	1.0507019	1.0838285	-0.26987007	1.2425664	1.0122574	0.16810956	1.103881	0.85281098	-0.31284376	1.4834079	0.95404929	0.14820225
447	1.784	1.6850304	0.069614775	-0.11125463	0.92950225	0.03800154	-0.010261441	1.5502435	0.067105995	-0.13912617	0.82335194	0.1252627	0.034887319	1.5571513	0.092063661	-0.057529904	0.86006167	0.13922639	-0.045270313	1.4929056	0.026496937	-0.094785774	0.77174785	0.1347606	-0.013244652	1.4612946	0.44598041	-0.16976478	1.0929299	0.42215273	0.079413074	1.4716306	0.42312403	-0.050381097	1.1279016	0.41779576	-0.043758008	1.3294616	0.80541222	-0.22797274	1.1825481	0.81875921	0.13327901	1.3512402	0.91624662	-0.14112271	1.2764222	0.90948939	0.096934533	1.1248666	0.91431644	-0.096571119	1.2134326	1.3813345	-0.19789467	1.200555	1.3716277	0.12682833	1.1222037	1.3970777	-0.042868314	1.0566273	1.0832128	-0.27003667	1.2487441	1.011711	0.16610076	1.1095926	0.85225219	-0.31355044	1.4895213	0.95428114	0.14604767
448	1.788	1.687579	0.066801904	-0.11096121	0.93024422	0.037901545	-0.010379226	1.55251	0.06682808	-0.13912315	0.82684754	0.12866153	0.034514957	1.5596854	0.091624373	-0.057392531	0.86486661	0.14129991	-0.045157085	1.4940218	0.027532979	-0.095006866	0.77630185	0.13940447	-0.014145368	1.4681634	0.44664359	-0.16989202	1.1005016	0.42152983	0.079519193	1.4784473	0.42369541	-0.050424521	1.1363953	0.41629134	-0.043198233	1.3371264	0.8059784	-0.22819042	1.1895262	0.81779938	0.13261047	1.3574206	0.91634769	-0.14145953	1.2830931	0.90890912	0.096309421	1.1313217	0.91400847	-0.096724556	1.219183	1.3809469	-0.1986095	1.2065692	1.3714101	0.12626998	1.128003	1.3966546	-0.043547377	1.0626414	1.082613	-0.27021991	1.2544365	1.0112903	0.16425228	1.1154101	0.85171825	-0.31427021	1.4955722	0.95442917	0.14395668
449	1.792	1.6896646	0.064009275	-0.11070838	0.93106835	0.037784413	-0.010505873	1.554434	0.066564244	-0.13922985	0.83067809	0.13211694	0.034059842	1.5619335	0.091288601	-0.057408179	0.87003617	0.14332326	-0.045052212	1.4949966	0.028494258	-0.09532691	0.78128102	0.14409923	-0.015171918	1.4752709	0.44756001	-0.17001258	1.108306	0.42086897	0.079681216	1.4853028	0.42456169	-0.050392237	1.1452386	0.41466079	-0.042532987	1.3448025	0.80677221	-0.22834773	1.1968729	0.81678083	0.13192831	1.3635666	0.91653258	-0.14189012	1.2897871	0.90832323	0.095594604	1.1377275	0.9137064	-0.096837088	1.2249253	1.380616	-0.19930428	1.2126387	1.3712306	0.1257357	1.1339106	1.3963378	-0.044218643	1.0687453	1.0820446	-0.27044304	1.259657	1.0110108	0.16257461	1.1213224	0.85122103	-0.31499735	1.5015583	0.95449445	0.1419286
450	1.796	1.6913122	0.061099628	-0.11044226	0.93198163	0.037658252	-0.010668326	1.5560411	0.066355968	-0.13941615	0.83490305	0.13564751	0.033544568	1.5639139	0.091061443	-0.057537176	0.87556721	0.14528724	-0.044973672	1.4958327	0.029378824	-0.095709389	0.78672939	0.14877239	-0.016340297	1.4825992	0.44865891	-0.17009782	1.1163001	0.42019414	0.079897841	1.4921917	0.42565741	-0.050251225	1.1544008	0.41291085	-0.041760562	1.3524525	0.8077545	-0.22847353	1.2041997	0.81571186	0.13125765	1.3697092	0.91680858	-0.14240921	1.2964611	0.90773264	0.094789494	1.1440983	0.9133951	-0.096943507	1.2306477	1.3803416	-0.19996403	1.2187647	1.3710866	0.12521314	1.1399446	1.3961207	-0.044861445	1.0749377	1.0815273	-0.27071707	1.264781	1.0108512	0.16096941	1.1273253	0.85076508	-0.3157335	1.5074772	0.95448344	0.13995797
451	1.8	1.6926581	0.058157936	-0.11001585	0.9329939	0.037528817	-0.010867517	1.557438	0.066196355	-0.13963598	0.83952327	0.13922612	0.032994032	1.565609	0.090905095	-0.057701823	0.88144856	0.14717442	-0.044917093	1.4965778	0.030183852	-0.096146427	0.79264414	0.15338324	-0.017617864	1.4900945	0.44986754	-0.17013661	1.124391	0.41953014	0.080118898	1.4990606	0.42689415	-0.05001271	1.1638618	0.41103777	-0.040874994	1.3600272	0.80887817	-0.22860992	1.2113159	0.81459082	0.13061748	1.3758661	0.9171729	-0.14299966	1.3030869	0.90713372	0.093905902	1.1504653	0.9130728	-0.097061229	1.2363554	1.3801073	-0.20058332	1.224931	1.3709768	0.1246905	1.1460898	1.3959729	-0.045463019	1.0812051	1.0810617	-0.27103571	1.2703079	1.0108426	0.15932589	1.1334271	0.85034981	-0.31648594	1.5133357	0.95440439	0.13804351
452	1.804	1.6938952	0.055409384	-0.10928832	0.93410947	0.037390951	-0.01109145	1.5587803	0.066073847	-0.13983244	0.84449467	0.14278135	0.032432757	1.5670606	0.090786247	-0.057811313	0.8876643	0.14895008	-0.044841494	1.497301	0.03092839	-0.096644374	0.79896624	0.15791234	-0.018936262	1.4976865	0.45112151	-0.17012449	1.1324263	0.41890507	0.080264499	1.5058582	0.4281842	-0.049714908	1.173623	0.40902839	-0.039858523	1.3674779	0.81009877	-0.22879883	1.2182696	0.81341013	0.13000469	1.3820355	0.91762023	-0.14363751	1.3096737	0.90651578	0.092944261	1.1568429	0.91275728	-0.097198762	1.2420678	1.3798951	-0.2011685	1.2311261	1.3708968	0.12415791	1.1523067	1.3958536	-0.046015047	1.0875084	1.0806217	-0.27137848	1.2764201	1.0110479	0.15762139	1.1396405	0.84997169	-0.31725915	1.5191481	0.95426095	0.13619315
